<svg width="18" height="21" viewBox="0 0 18 21" fill="none" xmlns="http://www.w3.org/2000/svg">
<path d="M1 5.55577H2.77778H17" stroke="#6A7E8A" stroke-width="1.2" stroke-linecap="round" stroke-linejoin="round"/>
<path d="M3.97783 5.55556C3.97783 4.89281 3.44057 4.35556 2.77783 4.35556V5.55556H3.97783ZM3.97783 18V5.55556H2.77783V18H3.97783ZM4.55561 18.5778C4.23651 18.5778 3.97783 18.3191 3.97783 18H2.77783C2.77783 18.9818 3.57377 19.7778 4.55561 19.7778V18.5778ZM13.4445 18.5778H4.55561V19.7778H13.4445V18.5778ZM14.0223 18C14.0223 18.3191 13.7636 18.5778 13.4445 18.5778V19.7778C14.4263 19.7778 15.2223 18.9818 15.2223 18H14.0223ZM14.0223 5.55556V18H15.2223V5.55556H14.0223ZM15.2223 4.35556C14.5595 4.35556 14.0223 4.89281 14.0223 5.55556H15.2223V4.35556ZM16.4223 5.55556C16.4223 4.89281 15.885 4.35556 15.2223 4.35556V5.55556H16.4223ZM16.4223 18V5.55556H15.2223V18H16.4223ZM13.4445 20.9778C15.0891 20.9778 16.4223 19.6446 16.4223 18H15.2223C15.2223 18.9818 14.4263 19.7778 13.4445 19.7778V20.9778ZM4.55561 20.9778H13.4445V19.7778H4.55561V20.9778ZM1.57783 18C1.57783 19.6446 2.91103 20.9778 4.55561 20.9778V19.7778C3.57377 19.7778 2.77783 18.9818 2.77783 18H1.57783ZM1.57783 5.55556V18H2.77783V5.55556H1.57783ZM2.77783 4.35556C2.11509 4.35556 1.57783 4.89281 1.57783 5.55556H2.77783V4.35556ZM6.6445 3.77778C6.6445 3.45868 6.90318 3.2 7.22228 3.2V2C6.24044 2 5.4445 2.79594 5.4445 3.77778H6.6445ZM6.6445 5.55556V3.77778H5.4445V5.55556H6.6445ZM5.4445 6.75556C6.10724 6.75556 6.6445 6.2183 6.6445 5.55556H5.4445V5.55556V6.75556ZM4.2445 5.55556C4.2445 6.2183 4.78176 6.75556 5.4445 6.75556V5.55556V5.55556H4.2445ZM4.2445 3.77778V5.55556H5.4445V3.77778H4.2445ZM7.22228 0.8C5.5777 0.8 4.2445 2.1332 4.2445 3.77778H5.4445C5.4445 2.79594 6.24044 2 7.22228 2V0.8ZM10.7778 0.8H7.22228V2H10.7778V0.8ZM13.7556 3.77778C13.7556 2.1332 12.4224 0.8 10.7778 0.8V2C11.7597 2 12.5556 2.79594 12.5556 3.77778H13.7556ZM13.7556 5.55556V3.77778H12.5556V5.55556H13.7556ZM12.5556 6.75556C13.2184 6.75556 13.7556 6.2183 13.7556 5.55556H12.5556V5.55556V6.75556ZM11.3556 5.55556C11.3556 6.2183 11.8929 6.75556 12.5556 6.75556V5.55556V5.55556H11.3556ZM11.3556 3.77778V5.55556H12.5556V3.77778H11.3556ZM10.7778 3.2C11.0969 3.2 11.3556 3.45868 11.3556 3.77778H12.5556C12.5556 2.79594 11.7597 2 10.7778 2V3.2ZM7.22228 3.2H10.7778V2H7.22228V3.2Z" fill="#6A7E8A"/>
<path d="M7.22228 10V15.3333" stroke="#6A7E8A" stroke-width="1.2" stroke-linecap="square" stroke-linejoin="round"/>
<path d="M10.7779 10V15.3333" stroke="#6A7E8A" stroke-width="1.2" stroke-linecap="square" stroke-linejoin="round"/>
</svg>
