<svg width="24" height="24" viewBox="0 0 24 24" fill="none" xmlns="http://www.w3.org/2000/svg">
<path fill-rule="evenodd" clip-rule="evenodd" d="M16.2365 18.8454C16.4683 19.005 16.7671 19.0449 17.0335 18.9469C17.2999 18.8482 17.4958 18.627 17.5548 18.3589C18.1805 15.5001 19.6982 8.2642 20.2678 5.6637C20.311 5.4677 20.239 5.264 20.0806 5.1331C19.9222 5.0022 19.7026 4.9644 19.5067 5.0351C16.4878 6.1215 7.1904 9.513 3.39024 10.8801C3.14904 10.9669 2.99208 11.1923 3 11.4394C3.00864 11.6872 3.18 11.9021 3.42696 11.9742C5.1312 12.4698 7.36824 13.1593 7.36824 13.1593C7.36824 13.1593 8.41368 16.2288 8.95872 17.7898C9.02712 17.9858 9.1848 18.1398 9.39288 18.193C9.60024 18.2455 9.822 18.1902 9.9768 18.0481C10.8523 17.2445 12.2059 16.002 12.2059 16.002C12.2059 16.002 14.7778 17.8353 16.2365 18.8454ZM8.30928 12.7715L9.51816 16.6481L9.78672 14.1932C9.78672 14.1932 14.4574 10.0975 17.1199 7.763C17.1977 7.6944 17.2085 7.5796 17.1437 7.4991C17.0796 7.4186 16.9615 7.3997 16.873 7.4543C13.787 9.3702 8.30928 12.7715 8.30928 12.7715Z" fill="white"/>
</svg>
