<svg width="24" height="24" viewBox="0 0 24 24" fill="none" xmlns="http://www.w3.org/2000/svg">
<path fill-rule="evenodd" clip-rule="evenodd" d="M5.11877 7.24268H5.09337C3.82338 7.24268 3 6.30793 3 5.12307C3 3.91516 3.84772 3 5.14311 3C6.43744 3 7.2333 3.91285 7.2587 5.11961C7.2587 6.30448 6.43744 7.24268 5.11877 7.24268ZM21 21H17.0218V14.6723C17.0218 13.016 16.3995 11.8853 15.031 11.8853C13.9844 11.8853 13.4023 12.6483 13.1313 13.3837C13.0419 13.6161 13.0435 13.9289 13.0452 14.2513V14.2513C13.0454 14.2951 13.0456 14.339 13.0456 14.383V21H9.10442C9.10442 21 9.15522 9.79106 9.10442 8.77217H13.0456V10.6912C13.2785 9.85215 14.5379 8.65461 16.5476 8.65461C19.041 8.65461 21 10.4135 21 14.2009V21ZM6.96237 8.77217H3.45402V21H6.96237V8.77217Z" fill="white"/>
</svg>
